<svg width="20" height="20" viewBox="0 0 20 20" fill="none" xmlns="http://www.w3.org/2000/svg">
<path fill-rule="evenodd" clip-rule="evenodd" d="M17.5039 0.0772939C18.1889 -0.121981 18.931 0.0702488 19.434 0.582527C19.937 1.0938 20.123 1.83957 19.918 2.52999L18.669 6.73188C18.55 7.13144 18.1339 7.35789 17.7359 7.23913C17.3389 7.11936 17.1129 6.69867 17.2319 6.30012L18.481 2.09722C18.551 1.86171 18.4259 1.7027 18.3689 1.64533C18.3119 1.58696 18.1519 1.46014 17.9209 1.52758L1.82937 6.20652C1.57336 6.281 1.51736 6.49537 1.50536 6.58394C1.49436 6.6725 1.49036 6.89392 1.71837 7.03482L5.10449 9.11816C5.4575 9.33555 5.5695 9.80052 5.35249 10.1568C5.21149 10.3883 4.96548 10.5171 4.71247 10.5171C4.57947 10.5171 4.44446 10.4819 4.32246 10.4064L0.936341 8.32206C0.265318 7.90942 -0.0866946 7.16667 0.018309 6.38265C0.123313 5.59762 0.658331 4.97464 1.41336 4.75523L17.5039 0.0772939ZM16.0282 10.3492C16.1482 9.94867 16.5652 9.72122 16.9622 9.84199C17.3592 9.96175 17.5852 10.3824 17.4662 10.782L15.1441 18.596C14.9191 19.3519 14.2971 19.8833 13.5201 19.9829C13.4331 19.995 13.3471 20 13.2611 20C12.583 20 11.963 19.6518 11.602 19.0539L7.50187 12.2645C7.32286 11.9666 7.36786 11.5841 7.61287 11.3386L13.4341 5.48007C13.7271 5.18518 14.2011 5.18518 14.4941 5.48007C14.7871 5.77496 14.7871 6.25302 14.4941 6.54791L9.08992 11.9877L12.8841 18.2699C13.0221 18.4984 13.2391 18.4964 13.3291 18.4863C13.4171 18.4742 13.6301 18.4199 13.7061 18.1643L16.0282 10.3492Z" fill="#200E32"/>
</svg>
