<svg width="20" height="21" viewBox="0 0 20 21" fill="none" xmlns="http://www.w3.org/2000/svg">
<path d="M15.5 21C14.4179 21.0125 13.3923 20.5181 12.7282 19.6637C12.0641 18.8094 11.8379 17.6935 12.117 16.648L5.85697 13.07C4.77525 14.061 3.18965 14.2708 1.88746 13.5951C0.585261 12.9194 -0.156157 11.5022 0.0313367 10.0472C0.21883 8.59217 1.2953 7.40923 2.72625 7.08574C4.15719 6.76224 5.63783 7.36711 6.43297 8.59999L12.116 5.35099C12.0424 5.07317 12.0035 4.78735 12 4.49999C11.9856 2.8267 13.1478 1.37313 14.7832 1.01881C16.4186 0.664492 18.0781 1.50673 18.7576 3.03591C19.4371 4.56508 18.95 6.36122 17.5909 7.3375C16.2319 8.31378 14.3742 8.20208 13.142 7.06999L6.99097 10.585C6.98488 10.8443 6.94863 11.102 6.88297 11.353L13.142 14.93C14.2942 13.8725 16.0087 13.7093 17.3399 14.5303C18.671 15.3513 19.2946 16.9567 18.8668 18.461C18.439 19.9653 17.0639 21.0023 15.5 21ZM15.5 16C14.6715 16 14 16.6716 14 17.5C14 18.3284 14.6715 19 15.5 19C16.3284 19 17 18.3284 17 17.5C17 16.6716 16.3284 16 15.5 16ZM3.49997 8.99999C2.67154 8.99999 1.99997 9.67156 1.99997 10.5C1.99997 11.3284 2.67154 12 3.49997 12C4.3284 12 4.99997 11.3284 4.99997 10.5C4.99997 9.67156 4.3284 8.99999 3.49997 8.99999ZM15.5 2.99999C14.6715 2.99999 14 3.67156 14 4.49999C14 5.32842 14.6715 5.99999 15.5 5.99999C16.3284 5.99999 17 5.32842 17 4.49999C17 3.67156 16.3284 2.99999 15.5 2.99999Z" fill="#0384C6"/>
</svg>
